<svg width="22" height="22" viewBox="0 0 22 22" fill="none" xmlns="http://www.w3.org/2000/svg">
<g id="arcticons:id-me">
<path id="Vector" d="M14.7707 15.1859C14.7799 15.2226 14.7799 15.2588 14.7799 15.2955V17.0234H2.0625V15.2955C2.0625 14.7161 2.41817 14.1918 2.96083 13.9778L6.59037 12.5414C7.06933 12.3544 7.19675 11.7205 6.80946 11.374C6.09813 10.7355 5.63292 9.68685 5.63292 8.50115C5.63292 6.55415 6.88233 4.97656 8.42325 4.97656C9.96004 4.97656 11.2095 6.55415 11.2095 8.50115C11.2095 9.68685 10.7442 10.7355 10.0329 11.374C9.64562 11.7205 9.77304 12.3544 10.252 12.5414L13.2202 13.7133V13.7179" stroke="black" stroke-linecap="round" stroke-linejoin="round"/>
<path id="Vector_2" d="M16.0051 6.61649C15.286 7.22287 14.6136 7.60512 12.821 7.95482C12.7393 7.97018 12.6655 8.01354 12.6123 8.07745C12.5591 8.14137 12.5298 8.22183 12.5295 8.30499V11.5307C12.5295 13.5763 14.4133 15.5966 16.2333 15.5966C17.9938 15.5966 19.9376 13.5763 19.9376 11.5307V8.30499C19.9372 8.22184 19.9078 8.14144 19.8545 8.07761C19.8012 8.01378 19.7274 7.97052 19.6456 7.95528C17.8535 7.60512 17.1812 7.22287 16.4625 6.61649C16.3982 6.56291 16.3172 6.53357 16.2336 6.53357C16.1499 6.53357 16.0693 6.56291 16.0051 6.61649Z" stroke="black" stroke-linecap="round" stroke-linejoin="round"/>
<path id="Vector_3" d="M18.3434 9.85461L15.7547 12.3241L14.6355 11.2044" stroke="black" stroke-linecap="round" stroke-linejoin="round"/>
</g>
</svg>
