<svg width="22" height="23" viewBox="0 0 22 23" fill="none" xmlns="http://www.w3.org/2000/svg">
<g id="email icon">
<path id="Vector" d="M19.25 4.625H2.75C2.38533 4.625 2.03559 4.76987 1.77773 5.02773C1.51987 5.28559 1.375 5.63533 1.375 6V17C1.375 17.3647 1.51987 17.7144 1.77773 17.9723C2.03559 18.2301 2.38533 18.375 2.75 18.375H19.25C19.6147 18.375 19.9644 18.2301 20.2223 17.9723C20.4801 17.7144 20.625 17.3647 20.625 17V6C20.625 5.63533 20.4801 5.28559 20.2223 5.02773C19.9644 4.76987 19.6147 4.625 19.25 4.625ZM17.7375 6L11 10.6612L4.2625 6H17.7375ZM2.75 17V6.62562L10.6081 12.0637C10.7232 12.1436 10.8599 12.1864 11 12.1864C11.1401 12.1864 11.2768 12.1436 11.3919 12.0637L19.25 6.62562V17H2.75Z" fill="#605757"/>
</g>
</svg>
