<svg width="22" height="23" viewBox="0 0 22 23" fill="none" xmlns="http://www.w3.org/2000/svg">
<g id="eye icon">
<path id="Vector" d="M21.2532 11.2216C21.2231 11.1537 20.4952 9.53891 18.877 7.9207C16.7209 5.76453 13.9975 4.625 11 4.625C8.00249 4.625 5.27913 5.76453 3.12296 7.9207C1.50476 9.53891 0.773429 11.1562 0.746789 11.2216C0.707698 11.3095 0.6875 11.4046 0.6875 11.5009C0.6875 11.5971 0.707698 11.6922 0.746789 11.7802C0.776867 11.848 1.50476 13.462 3.12296 15.0802C5.27913 17.2355 8.00249 18.375 11 18.375C13.9975 18.375 16.7209 17.2355 18.877 15.0802C20.4952 13.462 21.2231 11.848 21.2532 11.7802C21.2923 11.6922 21.3125 11.5971 21.3125 11.5009C21.3125 11.4046 21.2923 11.3095 21.2532 11.2216ZM11 17C8.35484 17 6.04398 16.0384 4.13101 14.1426C3.34609 13.362 2.67831 12.4719 2.14843 11.5C2.67817 10.528 3.34597 9.63789 4.13101 8.85742C6.04398 6.96164 8.35484 6 11 6C13.6451 6 15.956 6.96164 17.869 8.85742C18.6554 9.6377 19.3247 10.5278 19.8559 11.5C19.2362 12.6567 16.5369 17 11 17ZM11 7.375C10.1841 7.375 9.38662 7.61693 8.70826 8.07019C8.02991 8.52345 7.5012 9.16769 7.18899 9.92143C6.87678 10.6752 6.79509 11.5046 6.95425 12.3047C7.11342 13.1049 7.50628 13.8399 8.08318 14.4168C8.66007 14.9937 9.39507 15.3866 10.1952 15.5457C10.9954 15.7049 11.8248 15.6232 12.5786 15.311C13.3323 14.9988 13.9765 14.4701 14.4298 13.7917C14.8831 13.1134 15.125 12.3158 15.125 11.5C15.1239 10.4063 14.6889 9.35778 13.9156 8.58444C13.1422 7.8111 12.0937 7.37614 11 7.375ZM11 14.25C10.4561 14.25 9.92441 14.0887 9.47217 13.7865C9.01994 13.4844 8.66746 13.0549 8.45932 12.5524C8.25118 12.0499 8.19672 11.4969 8.30283 10.9635C8.40894 10.4301 8.67085 9.94005 9.05545 9.55546C9.44004 9.17086 9.93005 8.90895 10.4635 8.80284C10.9969 8.69673 11.5499 8.75119 12.0524 8.95933C12.5549 9.16747 12.9844 9.51995 13.2865 9.97218C13.5887 10.4244 13.75 10.9561 13.75 11.5C13.75 12.2293 13.4603 12.9288 12.9445 13.4445C12.4288 13.9603 11.7293 14.25 11 14.25Z" fill="#605757"/>
</g>
</svg>
