<svg width="48" height="55" viewBox="0 0 48 55" fill="none" xmlns="http://www.w3.org/2000/svg">
<g id="fa6-brands:square-whatsapp" clip-path="url(#clip0_48_316)">
<path id="Vector" d="M10.2211 27.3525C10.2211 29.9786 10.9523 32.5415 12.3312 34.7458L12.6551 35.2732L11.2657 40.399L16.4785 39.0173L16.9799 39.3232C19.0901 40.5888 21.5137 41.2638 23.9895 41.2638H24C31.5841 41.2638 37.9251 35.0306 37.9251 27.363C37.9251 23.6505 36.3372 20.1594 33.7361 17.5333C31.1245 14.8965 27.6771 13.4516 24 13.4516C16.4054 13.4516 10.2315 19.6848 10.2211 27.3525ZM29.3068 35.3048C27.9905 35.5052 26.9668 35.3998 24.3447 34.2607C20.5004 32.5837 17.8888 28.829 17.356 28.0696C17.3142 28.0064 17.2829 27.9747 17.2724 27.9536C17.0635 27.6794 15.5801 25.686 15.5801 23.6294C15.5801 21.6888 16.5203 20.6868 16.959 20.2227C16.9904 20.1911 17.0113 20.17 17.0322 20.1384C17.4082 19.7165 17.8574 19.611 18.1395 19.611C18.4111 19.611 18.6931 19.611 18.9334 19.6216H19.017C19.2573 19.6216 19.5602 19.6216 19.8632 20.3387C19.9885 20.6446 20.1765 21.1087 20.375 21.5833C20.7198 22.427 21.0749 23.3024 21.1376 23.4395C21.2421 23.6505 21.3152 23.8931 21.169 24.1673C20.8138 24.8845 20.4482 25.2642 20.1974 25.5384C19.8736 25.8759 19.7274 26.0341 19.9572 26.4454C21.5555 29.2193 23.1538 30.179 25.5878 31.413C26.0057 31.624 26.246 31.5923 26.4862 31.3075C26.7265 31.0333 27.5204 30.0841 27.792 29.6728C28.0636 29.2509 28.3457 29.3247 28.7218 29.4618C29.0978 29.5989 31.1349 30.6114 31.5528 30.8224C31.6363 30.8646 31.7095 30.8962 31.7721 30.9279C32.0646 31.0755 32.2631 31.1704 32.3467 31.3075C32.4407 31.5079 32.4407 32.3517 32.096 33.322C31.7512 34.3029 30.1007 35.1888 29.3068 35.3048ZM47.4001 10.625C47.4001 6.90197 44.4019 3.875 40.7143 3.875H7.2856C3.59799 3.875 0.599854 6.90197 0.599854 10.625V44.3752C0.599854 48.0982 3.59799 51.1252 7.2856 51.1252H40.7143C44.4019 51.1252 47.4001 48.0982 47.4001 44.3752V10.625ZM16.0711 42.0443L7.2856 44.3752L9.63605 35.7056C8.18399 33.1744 7.4214 30.295 7.4214 27.3419C7.43185 18.1239 14.8593 10.625 23.9895 10.625C28.4188 10.625 32.5765 12.3653 35.7105 15.5293C38.834 18.6934 40.7143 22.8911 40.7143 27.363C40.7143 36.581 33.1197 44.0799 23.9895 44.0799C21.2107 44.0799 18.4842 43.3732 16.0711 42.0443Z" fill="#00DE5E"/>
</g>
<defs>
<clipPath id="clip0_48_316">
<rect width="46.8002" height="54.0002" fill="white" transform="translate(0.599854 0.5)"/>
</clipPath>
</defs>
</svg>
