<svg width="24" height="24" viewBox="0 0 24 24" fill="none" xmlns="http://www.w3.org/2000/svg">
<g id="fluent-mdl2:navigate-back-mirrored">
<g id="Group 25">
<circle id="Ellipse 172" cx="12" cy="11" r="11" fill="#FAFAFA"/>
<path id="Vector" d="M12.25 0C13.2891 0 14.2852 0.132812 15.2383 0.398438C16.1914 0.664062 17.0898 1.03906 17.9336 1.52344C18.7773 2.00781 19.5352 2.59375 20.207 3.28125C20.8789 3.96875 21.4648 4.73047 21.9648 5.56641C22.4648 6.40234 22.8438 7.29688 23.1016 8.25C23.3594 9.20312 23.4922 10.2031 23.5 11.25C23.5 12.2891 23.3672 13.2852 23.1016 14.2383C22.8359 15.1914 22.4609 16.0898 21.9766 16.9336C21.4922 17.7773 20.9062 18.5352 20.2188 19.207C19.5312 19.8789 18.7695 20.4648 17.9336 20.9648C17.0977 21.4648 16.2031 21.8438 15.25 22.1016C14.2969 22.3594 13.2969 22.4922 12.25 22.5C11.2109 22.5 10.2148 22.3672 9.26172 22.1016C8.30859 21.8359 7.41016 21.4609 6.56641 20.9766C5.72266 20.4922 4.96484 19.9062 4.29297 19.2188C3.62109 18.5312 3.03516 17.7695 2.53516 16.9336C2.03516 16.0977 1.65625 15.2031 1.39844 14.25C1.14062 13.2969 1.00781 12.2969 1 11.25C1 10.2109 1.13281 9.21484 1.39844 8.26172C1.66406 7.30859 2.03906 6.41016 2.52344 5.56641C3.00781 4.72266 3.59375 3.96484 4.28125 3.29297C4.96875 2.62109 5.73047 2.03516 6.56641 1.53516C7.40234 1.03516 8.29688 0.65625 9.25 0.398438C10.2031 0.140625 11.2031 0.0078125 12.25 0ZM12.25 21C13.1484 21 14.0117 20.8828 14.8398 20.6484C15.668 20.4141 16.4414 20.0859 17.1602 19.6641C17.8789 19.2422 18.5391 18.7344 19.1406 18.1406C19.7422 17.5469 20.25 16.8906 20.6641 16.1719C21.0781 15.4531 21.4062 14.6758 21.6484 13.8398C21.8906 13.0039 22.0078 12.1406 22 11.25C22 10.3516 21.8828 9.48828 21.6484 8.66016C21.4141 7.83203 21.0859 7.05859 20.6641 6.33984C20.2422 5.62109 19.7344 4.96094 19.1406 4.35938C18.5469 3.75781 17.8906 3.25 17.1719 2.83594C16.4531 2.42188 15.6758 2.09375 14.8398 1.85156C14.0039 1.60938 13.1406 1.49219 12.25 1.5C11.3516 1.5 10.4883 1.61719 9.66016 1.85156C8.83203 2.08594 8.05859 2.41406 7.33984 2.83594C6.62109 3.25781 5.96094 3.76562 5.35938 4.35938C4.75781 4.95312 4.25 5.60938 3.83594 6.32812C3.42188 7.04688 3.09375 7.82422 2.85156 8.66016C2.60938 9.49609 2.49219 10.3594 2.5 11.25C2.5 12.1484 2.61719 13.0117 2.85156 13.8398C3.08594 14.668 3.41406 15.4414 3.83594 16.1602C4.25781 16.8789 4.76562 17.5391 5.35938 18.1406C5.95312 18.7422 6.60938 19.25 7.32812 19.6641C8.04688 20.0781 8.82422 20.4062 9.66016 20.6484C10.4961 20.8906 11.3594 21.0078 12.25 21ZM9.51953 10.5H17.5V12H9.51953L12.7773 15.2109L11.7227 16.2891L6.63672 11.25L11.7227 6.21094L12.7773 7.28906L9.51953 10.5Z" fill="#75493A"/>
</g>
</g>
</svg>
