<svg width="22" height="22" viewBox="0 0 22 22" fill="none" xmlns="http://www.w3.org/2000/svg">
<g id="iconamoon:profile-light">
<g id="Group">
<path id="Vector" d="M3.66675 16.5002C3.66675 15.5277 4.05306 14.5951 4.74069 13.9074C5.42832 13.2198 6.36095 12.8335 7.33341 12.8335H14.6667C15.6392 12.8335 16.5718 13.2198 17.2595 13.9074C17.9471 14.5951 18.3334 15.5277 18.3334 16.5002C18.3334 16.9864 18.1403 17.4527 17.7964 17.7965C17.4526 18.1403 16.9863 18.3335 16.5001 18.3335H5.50008C5.01385 18.3335 4.54754 18.1403 4.20372 17.7965C3.8599 17.4527 3.66675 16.9864 3.66675 16.5002Z" stroke="#FAFAFA" stroke-width="1.5" stroke-linejoin="round"/>
<path id="Vector_2" d="M11 9.16675C12.5188 9.16675 13.75 7.93553 13.75 6.41675C13.75 4.89796 12.5188 3.66675 11 3.66675C9.48122 3.66675 8.25 4.89796 8.25 6.41675C8.25 7.93553 9.48122 9.16675 11 9.16675Z" stroke="#FAFAFA" stroke-width="1.5"/>
</g>
</g>
</svg>
