<svg width="188" height="196" viewBox="0 0 188 196" fill="none" xmlns="http://www.w3.org/2000/svg">
<g id="OTP 1" clip-path="url(#clip0_1_413)">
<g id="Page-1">
<g id="OTP">
<g id="undraw_confirmed_81ex-(1)">
<path id="Oval" fill-rule="evenodd" clip-rule="evenodd" d="M94 178.823C136.446 178.823 170.854 144.49 170.854 102.137C170.854 59.7845 136.446 25.451 94 25.451C51.5544 25.451 17.1455 59.7845 17.1455 102.137C17.1455 144.49 51.5544 178.823 94 178.823Z" stroke="#3AD29F" stroke-width="0.613889" stroke-dasharray="3.68 3.68"/>
<path id="Oval_2" fill-rule="evenodd" clip-rule="evenodd" d="M94 195.09C145.449 195.09 187.157 153.473 187.157 102.137C187.157 50.8006 145.449 9.18427 94 9.18427C42.5508 9.18427 0.843018 50.8006 0.843018 102.137C0.843018 153.473 42.5508 195.09 94 195.09Z" stroke="#3AD29F" stroke-width="0.613889" stroke-dasharray="3.68 3.68"/>
<path id="Path" d="M156.348 131.75C156.35 120.928 148.099 111.882 137.301 110.869C126.502 109.855 116.705 117.208 114.686 127.841L50.0997 126.093L50.8088 137.165C50.8088 137.165 41.5992 158.368 90.002 164.018V185.449H145.958V149.817C152.388 146.06 156.342 139.185 156.348 131.75Z" fill="url(#paint0_linear_1_413)"/>
<path id="Path_2" d="M53.0265 137.63C53.0265 137.63 44.2076 157.935 90.561 163.352V183.884H144.149V129.509L52.3381 127.025L53.0265 137.63Z" fill="#FFD4B0"/>
<path id="Path_3" d="M79.809 52.8953C76.9002 57.4753 70.8305 58.8516 66.2237 55.9757L37.4511 37.0572C32.861 34.1547 31.4817 28.0983 34.364 23.5016C37.2724 18.9278 43.3343 17.5523 47.939 20.4212L76.7116 39.3397C81.3053 42.2387 82.6894 48.2959 79.809 52.8953Z" fill="url(#paint1_linear_1_413)"/>
<path id="Path_4" d="M78.215 51.8625C75.5112 56.1197 69.8693 57.399 65.5871 54.7259L38.8329 37.1269C34.5664 34.429 33.2842 28.7995 35.9632 24.5266C38.667 20.2694 44.3089 18.9901 48.5911 21.6632L75.3401 39.2519C79.6148 41.9485 80.9001 47.5861 78.215 51.8625Z" fill="#FFD4B0"/>
<path id="Oval_3" d="M133.977 152.523C145.092 152.523 154.102 143.532 154.102 132.442C154.102 121.352 145.092 112.362 133.977 112.362C122.863 112.362 113.853 121.352 113.853 132.442C113.853 143.532 122.863 152.523 133.977 152.523Z" fill="#FFD4B0"/>
<path id="Rectangle" d="M130.355 0H53.262C51.5113 0 50.092 1.41611 50.092 3.16298V147.1C50.092 148.847 51.5113 150.263 53.262 150.263H130.355C132.105 150.263 133.524 148.847 133.524 147.1V3.16298C133.524 1.41611 132.105 0 130.355 0Z" fill="url(#paint2_linear_1_413)"/>
<path id="Rectangle_2" d="M128.864 2.03204H54.7473C52.7979 2.03204 51.2177 3.60884 51.2177 5.55392V144.715C51.2177 146.66 52.7979 148.236 54.7473 148.236H128.864C130.813 148.236 132.394 146.66 132.394 144.715V5.55392C132.394 3.60884 130.813 2.03204 128.864 2.03204Z" fill="white"/>
<path id="Path_5" d="M112.199 5.69852C111.714 8.9023 108.959 11.2739 105.712 11.2834H77.6768C74.4305 11.2727 71.6771 8.90134 71.192 5.69852H56.3387C55.5209 5.69852 54.7363 6.02152 54.1577 6.59831C53.5792 7.17509 53.2542 7.95767 53.2542 8.77371V141.49C53.2542 142.306 53.5779 143.089 54.1559 143.666C54.734 144.243 55.5183 144.567 56.3361 144.567H127.275C128.093 144.567 128.878 144.244 129.456 143.668C130.035 143.091 130.36 142.308 130.36 141.492V8.77629C130.36 7.96025 130.036 7.1774 129.458 6.60013C128.88 6.02286 128.096 5.69852 127.278 5.69852H112.199Z" fill="url(#paint3_linear_1_413)"/>
<path id="Rectangle_3" d="M100.449 7.44656H83.393C83.1072 7.44656 82.8755 7.67777 82.8755 7.96297V8.0585C82.8755 8.3437 83.1072 8.57491 83.393 8.57491H100.449C100.734 8.57491 100.966 8.3437 100.966 8.0585V7.96297C100.966 7.67777 100.734 7.44656 100.449 7.44656Z" fill="#DBDBDB"/>
<path id="Oval_4" d="M104.809 8.73959C105.274 8.73959 105.652 8.36297 105.652 7.89839C105.652 7.43381 105.274 7.05719 104.809 7.05719C104.343 7.05719 103.966 7.43381 103.966 7.89839C103.966 8.36297 104.343 8.73959 104.809 8.73959Z" fill="#DBDBDB"/>
<path id="Path_6" d="M146.986 135.985C141.145 137.333 137.137 133.532 135.786 127.707L122.366 77.9848C121.031 72.1372 124.678 66.311 130.53 64.943C136.391 63.6107 142.23 67.2499 143.601 73.0893L154.552 124.095C155.903 129.922 152.823 134.637 146.986 135.985Z" fill="url(#paint4_linear_1_413)"/>
<path id="Rectangle_4" d="M142.095 74.3065C140.957 69.3893 136.039 66.3242 131.111 67.4604C126.183 68.5965 123.111 73.5036 124.25 78.4207L136.59 131.712C137.728 136.629 142.646 139.694 147.574 138.558C152.502 137.422 155.574 132.515 154.435 127.597L142.095 74.3065Z" fill="#FFD4B0"/>
<path id="Rectangle_5" d="M154.016 177.165H77.4207V194.981H154.016V177.165Z" fill="url(#paint5_linear_1_413)"/>
<path id="Rectangle_6" d="M151.946 179.231H79.4907V193.174H151.946V179.231Z" fill="#233A72"/>
<path id="Path_7" d="M68.6406 106.235C65.7671 110.76 59.7699 112.12 55.2182 109.279L35.9218 96.8206C31.3862 93.9534 30.0231 87.9694 32.8709 83.4277C35.7444 78.9021 41.7415 77.5419 46.2932 80.3835L65.5897 92.8417C70.1252 95.7089 71.4884 101.693 68.6406 106.235Z" fill="url(#paint6_linear_1_413)"/>
<path id="Path_8" d="M63.7964 132.605C60.8973 137.172 54.8455 138.545 50.2524 135.678L38.2998 126.981C33.7227 124.089 32.3468 118.05 35.2205 113.467C38.1196 108.9 44.1713 107.527 48.7645 110.394L60.717 119.093C65.2926 121.986 66.6683 128.022 63.7964 132.605Z" fill="url(#paint7_linear_1_413)"/>
<g id="Group" opacity="0.5">
<path id="Oval_5" opacity="0.5" d="M91.8056 98.357C104.659 98.357 115.079 87.9598 115.079 75.1343C115.079 62.3087 104.659 51.9116 91.8056 51.9116C78.9519 51.9116 68.5319 62.3087 68.5319 75.1343C68.5319 87.9598 78.9519 98.357 91.8056 98.357Z" fill="url(#paint8_linear_1_413)"/>
</g>
<path id="Oval_6" d="M91.8056 96.9911C103.903 96.9911 113.71 87.2054 113.71 75.1343C113.71 63.0631 103.903 53.2774 91.8056 53.2774C79.7079 53.2774 69.9008 63.0631 69.9008 75.1343C69.9008 87.2054 79.7079 96.9911 91.8056 96.9911Z" fill="#69F0AE"/>
<path id="Path_9" d="M82.2984 72.2166L90.5117 79.7302L102.149 62.6553L106.258 66.0713L90.5117 86.5623L78.8749 73.585L82.2984 72.2166Z" fill="white"/>
<path id="Path_10" d="M62.8312 131.957C60.1274 136.214 54.4855 137.493 50.2033 134.82L39.0555 126.723C34.7889 124.025 33.5068 118.396 36.1857 114.123C38.8896 109.866 44.5314 108.586 48.8137 111.259L59.9589 119.372C64.2169 122.068 65.4992 127.687 62.8312 131.957Z" fill="#FFD4B0"/>
<path id="Path_11" d="M67.5796 105.55C64.8758 109.808 59.2339 111.087 54.9517 108.414L36.7964 96.6916C32.5299 93.9936 31.2477 88.3641 33.9267 84.0913C36.6305 79.8341 42.2724 78.5547 46.5546 81.2278L64.7099 92.9502C68.9765 95.6481 70.2586 101.278 67.5796 105.55Z" fill="#FFD4B0"/>
<path id="Path_12" d="M73.6297 79.9884C70.742 84.5339 64.7178 85.8997 60.1452 83.0456L35.6915 67.1584C31.1361 64.2771 29.7673 58.2661 32.6277 53.7035C35.5153 49.158 41.5395 47.7923 46.1122 50.6464L70.5659 66.5335C75.1213 69.4149 76.49 75.4259 73.6297 79.9884Z" fill="url(#paint9_linear_1_413)"/>
<path id="Path_13" d="M72.3306 79.1622C69.6268 83.4194 63.9849 84.6988 59.7027 82.0257L36.799 67.1455C32.5324 64.4476 31.2503 58.8181 33.9293 54.5452C36.6331 50.288 42.275 49.0086 46.5572 51.6817L69.4583 66.5619C73.7258 69.259 75.0091 74.8887 72.3306 79.1622Z" fill="#FFD4B0"/>
</g>
</g>
</g>
</g>
<defs>
<linearGradient id="paint0_linear_1_413" x1="103.228" y1="185.461" x2="103.228" y2="110.779" gradientUnits="userSpaceOnUse">
<stop stop-color="#808080" stop-opacity="0.25"/>
<stop offset="0.54" stop-color="#808080" stop-opacity="0.12"/>
<stop offset="1" stop-color="#808080" stop-opacity="0.1"/>
</linearGradient>
<linearGradient id="paint1_linear_1_413" x1="57.0839" y1="57.481" x2="57.0839" y2="18.9211" gradientUnits="userSpaceOnUse">
<stop stop-color="#808080" stop-opacity="0.25"/>
<stop offset="0.54" stop-color="#808080" stop-opacity="0.12"/>
<stop offset="1" stop-color="#808080" stop-opacity="0.1"/>
</linearGradient>
<linearGradient id="paint2_linear_1_413" x1="91.8082" y1="150.261" x2="91.8082" y2="-0.00257944" gradientUnits="userSpaceOnUse">
<stop stop-color="#808080" stop-opacity="0.25"/>
<stop offset="0.54" stop-color="#808080" stop-opacity="0.12"/>
<stop offset="1" stop-color="#808080" stop-opacity="0.1"/>
</linearGradient>
<linearGradient id="paint3_linear_1_413" x1="55.0473" y1="5.69852" x2="149.981" y2="66.0569" gradientUnits="userSpaceOnUse">
<stop stop-color="#233A72"/>
<stop offset="1" stop-color="#435789"/>
</linearGradient>
<linearGradient id="paint4_linear_1_413" x1="138.477" y1="136.253" x2="138.477" y2="64.6642" gradientUnits="userSpaceOnUse">
<stop stop-color="#808080" stop-opacity="0.25"/>
<stop offset="0.54" stop-color="#808080" stop-opacity="0.12"/>
<stop offset="1" stop-color="#808080" stop-opacity="0.1"/>
</linearGradient>
<linearGradient id="paint5_linear_1_413" x1="115.724" y1="194.976" x2="115.724" y2="177.16" gradientUnits="userSpaceOnUse">
<stop stop-color="#808080" stop-opacity="0.25"/>
<stop offset="0.54" stop-color="#808080" stop-opacity="0.12"/>
<stop offset="1" stop-color="#808080" stop-opacity="0.1"/>
</linearGradient>
<linearGradient id="paint6_linear_1_413" x1="50.7518" y1="110.764" x2="50.7518" y2="78.9014" gradientUnits="userSpaceOnUse">
<stop stop-color="#808080" stop-opacity="0.25"/>
<stop offset="0.54" stop-color="#808080" stop-opacity="0.12"/>
<stop offset="1" stop-color="#808080" stop-opacity="0.1"/>
</linearGradient>
<linearGradient id="paint7_linear_1_413" x1="49.5097" y1="137.175" x2="49.5097" y2="108.894" gradientUnits="userSpaceOnUse">
<stop stop-color="#808080" stop-opacity="0.25"/>
<stop offset="0.54" stop-color="#808080" stop-opacity="0.12"/>
<stop offset="1" stop-color="#808080" stop-opacity="0.1"/>
</linearGradient>
<linearGradient id="paint8_linear_1_413" x1="91.8056" y1="98.357" x2="91.8056" y2="51.909" gradientUnits="userSpaceOnUse">
<stop stop-color="#808080" stop-opacity="0.25"/>
<stop offset="0.54" stop-color="#808080" stop-opacity="0.12"/>
<stop offset="1" stop-color="#808080" stop-opacity="0.1"/>
</linearGradient>
<linearGradient id="paint9_linear_1_413" x1="53.1274" y1="84.5457" x2="53.1274" y2="49.1643" gradientUnits="userSpaceOnUse">
<stop stop-color="#808080" stop-opacity="0.25"/>
<stop offset="0.54" stop-color="#808080" stop-opacity="0.12"/>
<stop offset="1" stop-color="#808080" stop-opacity="0.1"/>
</linearGradient>
<clipPath id="clip0_1_413">
<rect width="188" height="196" fill="white"/>
</clipPath>
</defs>
</svg>
