<svg width="22" height="23" viewBox="0 0 22 23" fill="none" xmlns="http://www.w3.org/2000/svg">
<g id="password icon">
<path id="Vector" d="M11.0001 16.0833C10.5139 16.0833 10.0475 15.8902 9.70372 15.5464C9.3599 15.2026 9.16675 14.7362 9.16675 14.25C9.16675 13.2325 9.98258 12.4167 11.0001 12.4167C11.4863 12.4167 11.9526 12.6098 12.2964 12.9536C12.6403 13.2975 12.8334 13.7638 12.8334 14.25C12.8334 14.7362 12.6403 15.2026 12.2964 15.5464C11.9526 15.8902 11.4863 16.0833 11.0001 16.0833ZM16.5001 18.8333V9.66667H5.50008V18.8333H16.5001ZM16.5001 7.83334C16.9863 7.83334 17.4526 8.02649 17.7964 8.37031C18.1403 8.71413 18.3334 9.18044 18.3334 9.66667V18.8333C18.3334 19.3196 18.1403 19.7859 17.7964 20.1297C17.4526 20.4735 16.9863 20.6667 16.5001 20.6667H5.50008C5.01385 20.6667 4.54754 20.4735 4.20372 20.1297C3.8599 19.7859 3.66675 19.3196 3.66675 18.8333V9.66667C3.66675 8.64917 4.48258 7.83334 5.50008 7.83334H6.41675V6.00001C6.41675 4.78443 6.89963 3.61864 7.75918 2.7591C8.61872 1.89956 9.78451 1.41667 11.0001 1.41667C11.602 1.41667 12.198 1.53522 12.754 1.76556C13.3101 1.99589 13.8154 2.3335 14.241 2.7591C14.6666 3.1847 15.0042 3.68996 15.2345 4.24604C15.4649 4.80211 15.5834 5.39811 15.5834 6.00001V7.83334H16.5001ZM11.0001 3.25001C10.2707 3.25001 9.57126 3.53974 9.05554 4.05546C8.53981 4.57119 8.25008 5.27066 8.25008 6.00001V7.83334H13.7501V6.00001C13.7501 5.27066 13.4604 4.57119 12.9446 4.05546C12.4289 3.53974 11.7294 3.25001 11.0001 3.25001Z" fill="#605757"/>
</g>
</svg>
