<svg width="20" height="20" viewBox="0 0 20 20" fill="none" xmlns="http://www.w3.org/2000/svg">
<g id="solar:bill-list-linear">
<g id="&#217;&#129;&#216;&#167;&#216;&#170;&#217;&#136;&#216;&#177;&#217;&#135; &#216;&#167;&#217;&#138;&#217;&#131;&#217;&#136;&#217;&#134;">
<path id="Vector" d="M13.9625 1.66669H6.0375C5.07167 1.66669 4.58917 1.66669 4.19917 1.80252C3.83148 1.9329 3.4988 2.14627 3.22695 2.42607C2.9551 2.70587 2.7514 3.04457 2.63167 3.41585C2.5 3.81752 2.5 4.31419 2.5 5.30835V16.9784C2.5 17.6934 3.32083 18.0734 3.84 17.5984C3.98566 17.4638 4.17668 17.389 4.375 17.389C4.57331 17.389 4.76434 17.4638 4.91 17.5984L5.3125 17.9667C5.56767 18.2027 5.90245 18.3337 6.25 18.3337C6.59755 18.3337 6.93233 18.2027 7.1875 17.9667C7.44267 17.7307 7.77745 17.5997 8.125 17.5997C8.47255 17.5997 8.80733 17.7307 9.0625 17.9667C9.31767 18.2027 9.65245 18.3337 10 18.3337C10.3476 18.3337 10.6823 18.2027 10.9375 17.9667C11.1927 17.7307 11.5274 17.5997 11.875 17.5997C12.2226 17.5997 12.5573 17.7307 12.8125 17.9667C13.0677 18.2027 13.4024 18.3337 13.75 18.3337C14.0976 18.3337 14.4323 18.2027 14.6875 17.9667L15.09 17.5984C15.2357 17.4638 15.4267 17.389 15.625 17.389C15.8233 17.389 16.0143 17.4638 16.16 17.5984C16.6792 18.0734 17.5 17.6934 17.5 16.9784V5.30835C17.5 4.31419 17.5 3.81669 17.3683 3.41669C17.2488 3.04522 17.0451 2.70633 16.7733 2.42637C16.5014 2.14641 16.1686 1.93293 15.8008 1.80252C15.4108 1.66669 14.9283 1.66669 13.9625 1.66669Z" stroke="#605757" stroke-width="1.5"/>
<path id="Vector_2" d="M8.74992 9.16667H14.1666M5.83325 9.16667H6.24992M5.83325 6.25H6.24992M5.83325 12.0833H6.24992M8.74992 6.25H14.1666M8.74992 12.0833H14.1666" stroke="#605757" stroke-width="1.5" stroke-linecap="round"/>
</g>
</g>
</svg>
