<svg width="24" height="24" viewBox="0 0 24 24" fill="none" xmlns="http://www.w3.org/2000/svg">
<g id="system-uicons:side-menu">
<g id="Group">
<g id="Vector">
<path fill-rule="evenodd" clip-rule="evenodd" d="M8.8186 4.70477H22.4567H8.8186ZM8.8186 11.5204H17.3424H8.8186ZM8.8186 18.3429H22.4567H8.8186Z" fill="#FAFAFA"/>
<path d="M8.8186 4.70477H22.4567M8.8186 11.5204H17.3424M8.8186 18.3429H22.4567" stroke="#FAFAFA" stroke-width="2" stroke-linecap="round" stroke-linejoin="round"/>
</g>
<path id="Vector_2" d="M4.90782 4.70476C4.90782 4.96834 4.771 5.27377 4.52153 5.52324C4.27206 5.77271 3.96663 5.90953 3.70306 5.90953C3.43959 5.90953 3.13467 5.7728 2.88568 5.52347C2.63669 5.27415 2.5 4.96867 2.5 4.70476C2.5 4.44086 2.63669 4.13538 2.88568 3.88606C3.13467 3.63673 3.43959 3.5 3.70306 3.5C3.96663 3.5 4.27206 3.63682 4.52153 3.88629C4.771 4.13576 4.90782 4.44119 4.90782 4.70476ZM4.90782 11.5238C4.90782 11.7874 4.771 12.0928 4.52153 12.3423C4.27206 12.5918 3.96663 12.7286 3.70306 12.7286C3.43959 12.7286 3.13467 12.5919 2.88568 12.3425C2.63669 12.0932 2.5 11.7877 2.5 11.5238C2.5 11.2599 2.63669 10.9544 2.88568 10.7051C3.13467 10.4558 3.43959 10.3191 3.70306 10.3191C3.96663 10.3191 4.27206 10.4559 4.52153 10.7053C4.771 10.9548 4.90782 11.2602 4.90782 11.5238ZM4.90782 18.3429C4.90782 18.6065 4.771 18.9119 4.52153 19.1614C4.27206 19.4108 3.96663 19.5476 3.70306 19.5476C3.43959 19.5476 3.13467 19.4109 2.88568 19.1616C2.63669 18.9123 2.5 18.6068 2.5 18.3429C2.5 18.079 2.63669 17.7735 2.88568 17.5242C3.13467 17.2748 3.43959 17.1381 3.70306 17.1381C3.96663 17.1381 4.27206 17.2749 4.52153 17.5244C4.771 17.7739 4.90782 18.0793 4.90782 18.3429Z" fill="#FAFAFA" stroke="#FAFAFA"/>
</g>
</g>
</svg>
