<svg width="17" height="17" viewBox="0 0 17 17" fill="none" xmlns="http://www.w3.org/2000/svg">
<path id="Vector" d="M1.31891 8.14819C1.53489 8.14819 1.74202 8.23399 1.89474 8.38671C2.04746 8.53943 2.13325 8.74656 2.13325 8.96254V13.8486C2.13325 14.0646 2.21905 14.2717 2.37177 14.4245C2.52449 14.5772 2.73162 14.663 2.9476 14.663H14.3485C14.5644 14.663 14.7716 14.5772 14.9243 14.4245C15.077 14.2717 15.1628 14.0646 15.1628 13.8486V2.44776C15.1628 2.23179 15.077 2.02465 14.9243 1.87193C14.7716 1.71921 14.5644 1.63342 14.3485 1.63342H9.46238C9.2464 1.63342 9.03927 1.54762 8.88655 1.3949C8.73383 1.24218 8.64803 1.03505 8.64803 0.819069C8.64803 0.603091 8.73383 0.395958 8.88655 0.243239C9.03927 0.0905189 9.2464 0.00472186 9.46238 0.00472186H14.3485C14.9964 0.00472186 15.6178 0.262113 16.076 0.720272C16.5341 1.17843 16.7915 1.79983 16.7915 2.44776V13.8486C16.7915 14.4966 16.5341 15.118 16.076 15.5761C15.6178 16.0343 14.9964 16.2917 14.3485 16.2917H2.9476C2.29967 16.2917 1.67827 16.0343 1.22011 15.5761C0.761951 15.118 0.50456 14.4966 0.50456 13.8486V8.96254C0.50456 8.74656 0.590357 8.53943 0.743076 8.38671C0.895796 8.23399 1.10293 8.14819 1.31891 8.14819ZM13.5341 8.7671V12.2199C13.5341 12.4359 13.4483 12.643 13.2956 12.7958C13.1429 12.9485 12.9357 13.0343 12.7198 13.0343H9.26694C9.15976 13.0349 9.05352 13.0144 8.9543 12.9738C8.85508 12.9333 8.76484 12.8736 8.68875 12.7981L3.05347 7.15469L0.740721 4.89081C0.664394 4.8151 0.603809 4.72503 0.562466 4.6258C0.521122 4.52656 0.499838 4.42012 0.499838 4.31262C0.499838 4.20511 0.521122 4.09868 0.562466 3.99944C0.603809 3.9002 0.664394 3.81014 0.740721 3.73443L4.19355 0.240883C4.26926 0.164555 4.35932 0.103972 4.45856 0.0626289C4.5578 0.0212856 4.66424 0 4.77174 0C4.87924 0 4.98568 0.0212856 5.08492 0.0626289C5.18415 0.103972 5.27422 0.164555 5.34993 0.240883L7.64639 2.54549L13.298 8.18891C13.3734 8.265 13.4331 8.35525 13.4737 8.45446C13.5142 8.55368 13.5347 8.65992 13.5341 8.7671ZM4.77174 1.9673L2.46714 4.2719L3.62351 5.42827L5.92811 3.12367L4.77174 1.9673ZM11.9054 9.10098L7.07634 4.2719L4.77174 6.5765L9.60082 11.4056H11.9054V9.10098Z" fill="#E7A967"/>
</svg>
